<svg width="41" height="33" viewBox="0 0 41 33" fill="none" xmlns="http://www.w3.org/2000/svg">
<path d="M4.50896 4.49408C4.43229 2.27937 6.15825 0.236206 8.49179 0.236206H32.3984C34.7319 0.236206 36.4579 2.27937 36.3803 4.49408C36.3065 6.62254 36.4023 9.37871 37.0961 11.627C37.7488 13.742 38.8221 15.1268 40.5394 15.4421C40.7368 15.4785 40.8873 15.6385 40.8873 15.8398V17.2179C40.8873 17.4191 40.7368 17.5792 40.5394 17.6156C38.8221 17.9299 37.7488 19.3147 37.0961 21.4307C36.4023 23.678 36.3065 26.4351 36.3803 28.5636C36.4569 30.7764 34.731 32.8195 32.3984 32.8195H8.49179C6.15921 32.8195 4.43229 30.7764 4.50992 28.5617C4.58371 26.4332 4.48788 23.677 3.79404 21.4288C3.14142 19.3137 2.06521 17.929 0.347875 17.6137C0.150458 17.5772 0 17.4172 0 17.216V15.8379C0 15.6366 0.150458 15.4766 0.347875 15.4402C2.06521 15.1258 3.14142 13.741 3.79404 11.625C4.48692 9.37871 4.58371 6.62254 4.50896 4.49408Z" fill="white"/>
<path d="M23.3881 16.0142V15.9873C25.1638 15.6807 26.5496 14.016 26.5496 12.1827C26.5496 10.8871 26.0513 9.78883 25.1083 9.00875C24.1681 8.23058 22.8495 7.81946 21.2931 7.81946H14.166V25.2295H21.3296C23.1906 25.2295 24.7364 24.7753 25.7983 23.9147C26.8611 23.0531 27.4236 21.7996 27.4236 20.2893C27.4226 18.0075 25.8031 16.294 23.3881 16.0142ZM20.0502 15.1938H17.0017V10.0974H20.6281C22.6176 10.0974 23.7129 10.9705 23.7129 12.5555C23.7139 14.2566 22.4125 15.1938 20.0502 15.1938ZM17.0017 17.3271H20.6041C23.2069 17.3271 24.5256 18.2672 24.5256 20.1216C24.5256 21.9731 23.2251 22.9515 20.7641 22.9515H17.0017V17.3271Z" fill="#563D7C"/>
</svg>
