<svg width="46" height="29" viewBox="0 0 46 29" fill="none" xmlns="http://www.w3.org/2000/svg">
<path d="M45.7836 1.15663L45.0011 1.15663C44.0335 1.15663 43.122 1.60775 42.5337 2.37559L34.5239 12.85L26.5142 2.37559C25.9277 1.60775 25.0153 1.15663 24.0486 1.15663L23.2661 1.15663L33.3667 14.3645L23.0497 27.8559L23.8323 27.8559C24.7999 27.8559 25.7114 27.4047 26.2987 26.6369L34.5249 15.8799L42.751 26.6369C43.3384 27.4047 44.2498 27.8559 45.2174 27.8559L46 27.8559L35.6831 14.3645L45.7836 1.15663ZM19.6 22.5547C17.2486 26.1278 12.6195 27.959 8.1939 26.3441C4.30042 24.9235 1.84133 21.0531 1.84133 16.9083L1.84133 15.8872L12.8893 15.8872L23.0166 15.8872L23.0166 12.0812C23.0166 6.0923 18.5808 0.849128 12.6177 0.288444C5.77532 -0.355099 5.04345e-08 5.03262 1.21008e-07 11.7443L1.74959e-07 16.8751C2.26954e-07 21.82 2.95993 26.4169 7.61296 28.0915C13.6921 30.279 20.0861 27.0144 22.2478 21.4112L21.6604 21.4112C20.8217 21.4112 20.0603 21.8541 19.6 22.5547ZM1.84133 11.7443C1.84133 6.41361 6.17765 2.07729 11.5083 2.07729C16.8389 2.07729 21.1752 6.41361 21.1752 11.7443L21.1752 14.0459L1.84133 14.0459L1.84133 11.7443Z" fill="white"/>
</svg>
