<svg width="46" height="47" viewBox="0 0 46 47" fill="none" xmlns="http://www.w3.org/2000/svg">
<path d="M45.0316 20.9362L25.3 1.20463C24.6947 0.599364 23.8474 0.236206 23 0.236206C22.1526 0.236206 21.3053 0.599364 20.7 1.20463L16.4632 5.44146L21.4263 10.4046C21.9105 10.1625 22.3947 10.0415 23 10.0415C25.0579 10.0415 26.6316 11.6151 26.6316 13.673C26.6316 14.2783 26.5105 14.7625 26.2684 15.2467L31.1105 20.0888C31.5947 19.8467 32.0789 19.7257 32.6842 19.7257C34.7421 19.7257 36.3158 21.2993 36.3158 23.3572C36.3158 25.4151 34.7421 26.9888 32.6842 26.9888C30.6263 26.9888 29.0526 25.4151 29.0526 23.3572C29.0526 22.752 29.1737 22.2678 29.4158 21.7836L24.5737 16.9415C24.4526 16.9415 24.3316 17.0625 24.2105 17.0625L24.2105 29.652C25.6632 30.1362 26.6316 31.4677 26.6316 33.0414C26.6316 35.0993 25.0579 36.673 23 36.673C20.9421 36.673 19.3684 35.0993 19.3684 33.0414C19.3684 31.4677 20.3368 30.1362 21.7895 29.652L21.7895 16.9415C20.3368 16.4572 19.3684 15.1257 19.3684 13.552C19.3684 12.9467 19.4895 12.4625 19.7316 11.9783L14.7684 7.01515L0.968422 20.9362C0.363158 21.5414 2.32936e-07 22.3888 2.41846e-07 23.2362C2.50756e-07 24.0835 0.363158 24.9309 0.968422 25.5362L20.7 45.2677C21.3053 45.873 22.1526 46.2362 23 46.2362C23.8474 46.2362 24.6947 45.873 25.3 45.2677L45.0316 25.5362C45.6368 24.9309 46 24.0835 46 23.2362C46 22.3888 45.6368 21.5414 45.0316 20.9362Z" fill="white"/>
</svg>
