<svg width="26" height="24" viewBox="0 0 26 24" fill="none" xmlns="http://www.w3.org/2000/svg">
<path d="M24.5055 8.19487C24.1986 7.76887 23.9715 7.40583 24.0313 6.78204C24.1145 5.90932 23.988 5.00404 23.8697 4.12454C23.7206 3.01495 23.4385 1.93355 22.9913 0.88501C21.8859 1.12406 20.7909 1.31604 19.814 1.88509C18.7781 2.48912 17.7709 3.14665 16.7448 3.76851C16.6281 3.83896 16.4618 3.87779 16.3306 3.85536C14.1318 3.46796 11.9348 3.48243 9.73463 3.84474C9.5678 3.87245 9.35863 3.81578 9.20904 3.72608C8.66524 3.39751 8.14969 3.01786 7.60306 2.69463C6.17662 1.84937 4.70761 1.11102 3.01464 0.892704C2.96657 0.99888 2.92667 1.0753 2.89701 1.15519C2.38743 2.54094 2.08413 3.97644 1.98804 5.45557C1.95289 5.993 1.91349 6.54299 1.98804 7.07005C2.03033 7.37011 1.98755 7.54909 1.81764 7.7633C1.22391 8.51034 0.76069 9.33386 0.459054 10.2604C-0.115777 12.0258 -0.0794557 13.8248 0.180572 15.6297C0.391893 17.1085 0.759955 18.5365 1.56642 19.8131C3.18004 22.3673 5.59171 23.4902 8.36723 23.7288C10.7301 23.9321 13.1155 23.8769 15.4912 23.8815C17.1867 23.8846 18.8652 23.6971 20.4737 23.0615C22.9671 22.0769 24.6173 20.2699 25.4025 17.6069C25.8595 16.0576 26.0428 14.4704 25.9917 12.8523C25.9377 11.1466 25.496 9.57124 24.5055 8.19487ZM22.2281 18.3759C21.7663 19.7931 20.793 20.6537 19.4658 21.1135C17.9858 21.6263 16.451 21.8487 14.8941 21.8989C14.2518 21.9194 13.6087 21.9025 12.9657 21.9025C10.9787 21.9314 8.99987 21.8402 7.06719 21.2881C4.63878 20.5946 3.73911 19.2247 3.50415 16.7106C3.35641 15.1289 3.67146 13.6637 4.88877 12.5353C5.59337 11.8821 6.45697 11.6206 7.35233 11.5987C8.71806 11.5656 10.0865 11.6799 11.4541 11.6858C12.9619 11.6925 14.4698 11.6532 15.9773 11.6225C16.8435 11.6044 17.7095 11.5504 18.5757 11.5352C20.9162 11.4952 22.3232 13.7059 22.5407 15.3064C22.6827 16.3518 22.5553 17.3719 22.2281 18.3759Z" fill="white"/>
<path d="M8.59256 18.9449C9.67395 18.9449 10.5506 17.839 10.5506 16.4748C10.5506 15.1106 9.67395 14.0048 8.59256 14.0048C7.51116 14.0048 6.63452 15.1106 6.63452 16.4748C6.63452 17.839 7.51116 18.9449 8.59256 18.9449Z" fill="white"/>
<path d="M17.8932 18.9449C18.9746 18.9449 19.8513 17.839 19.8513 16.4748C19.8513 15.1106 18.9746 14.0048 17.8932 14.0048C16.8118 14.0048 15.9352 15.1106 15.9352 16.4748C15.9352 17.839 16.8118 18.9449 17.8932 18.9449Z" fill="white"/>
</svg>
