<svg width="26" height="26" viewBox="0 0 26 26" fill="none" xmlns="http://www.w3.org/2000/svg">
<path d="M13 0C5.82075 0 0 5.91189 0 13.2036C0 19.3905 4.19467 24.5674 9.84967 26C9.789 25.8218 9.75 25.6149 9.75 25.3585V23.1018C9.22242 23.1018 8.33842 23.1018 8.11633 23.1018C7.22692 23.1018 6.43608 22.7134 6.05258 21.9916C5.62683 21.1895 5.55317 19.9627 4.498 19.2123C4.18492 18.9625 4.42325 18.6775 4.784 18.716C5.45025 18.9075 6.00275 19.3718 6.52275 20.0606C7.04058 20.7505 7.28433 20.9067 8.25175 20.9067C8.72083 20.9067 9.42283 20.8792 10.0837 20.7736C10.439 19.857 11.0533 19.0131 11.804 18.6148C7.475 18.1626 5.40908 15.9752 5.40908 13.0055C5.40908 11.727 5.94533 10.4902 6.85642 9.44824C6.55742 8.41397 6.1815 6.3047 6.97125 5.50148C8.91908 5.50148 10.0967 6.78443 10.3794 7.13102C11.3501 6.79323 12.4161 6.60178 13.5363 6.60178C14.6586 6.60178 15.7289 6.79323 16.7018 7.13322C16.9813 6.78883 18.1599 5.50148 20.1121 5.50148C20.9051 6.3058 20.5248 8.42387 20.2226 9.45595C21.1283 10.4957 21.6613 11.7292 21.6613 13.0055C21.6613 15.973 19.5986 18.1593 15.2761 18.6137C16.4656 19.2442 17.3333 21.0157 17.3333 22.3503V25.3585C17.3333 25.473 17.3084 25.5555 17.2954 25.6534C22.3611 23.85 26 18.9647 26 13.2036C26 5.91189 20.1793 0 13 0Z" fill="white"/>
</svg>
