<svg version="1.2" xmlns="http://www.w3.org/2000/svg" viewBox="0 0 100 122" width="100" height="122">
	<title>github</title>
	<style>
		.s0 { fill: #ffffff } 
	</style>
	<g>
		<path fill-rule="evenodd" class="s0" d="m68.3 81.3c3.5 5 3.7 10.8 3.6 16.6 0 7 0 14.1 0 21.2 0 2.2 0 2.3-2.2 2.3q-13.9 0-27.7 0c-2.1 0-2.2-0.2-2.2-2.3 0-4.5 0-9 0-13.7q-2.4 0.2-4.8 0.5c-7.8 0.7-14.6-1.3-19.9-7.4-0.7-0.8-1.3-1.8-1.9-2.8-2.7-4.2-5.3-8.5-8.1-12.6-0.8-1.3-2.1-2.3-3.2-3.4-0.6-0.6-1.2-1.2-1.9-1.9 1.9-1.2 3.8-0.9 5.5-0.6 4.4 0.7 7.3 3.4 9.6 6.9 1.2 1.8 2.4 3.6 3.9 5.1 4.8 4.8 10.6 6.4 17.1 4.9 4.3-1 3.5-0.5 4.1-4.4 0.4-2.6 1.1-5.1 2.5-7.3 0.3-0.4 0.5-0.8 0.7-1.3-1.8-0.4-3.6-0.6-5.3-1-6.8-1.6-13-4.3-18-9.4-5.2-5.4-8.1-11.8-8.3-19.4-0.2-6.4-0.1-12.7 1.3-19 1-4 2.6-7.6 5.6-10.6 0.4-0.5 0.7-1.6 0.5-2.2-2.1-6-1.8-11.9 0.1-17.8 0.3-1 0.7-1.2 1.7-1 3.8 1.1 7 3 9.6 5.7 1.8 1.9 3.5 4 5.3 6 4.6-3.3 10.1-3.4 15.5-3.7 5.9-0.4 11.9-0.3 17.8 1 2.2 0.5 4.4 1.5 6.4 2.2 2.4-2.3 4.9-4.6 7.3-6.9 2.1-2.1 4.7-3.4 7.6-4.2 1.2-0.3 1.7-0.1 2.1 1 2 5.8 2.3 11.6 0.1 17.4-0.3 0.8-0.6 1.6 0.2 2.3 4 3.8 5.9 8.6 6.3 13.9 0.5 5.6 1 11.2 0.7 16.9-0.5 10.3-5.7 18.2-14.6 23.4-4.8 2.8-10.1 4.4-15.6 5.2q-0.4 0-0.9 0.1c-0.1 0.1-0.2 0.2-0.5 0.3z"/>
	</g>
</svg>