<svg width="46" height="36" viewBox="0 0 46 36" fill="none" xmlns="http://www.w3.org/2000/svg">
<path d="M28.8274 24.1828C30.2317 26.6415 31.7578 28.9975 34.9906 28.9975C37.7059 28.9975 39.1305 27.5428 39.1305 25.5303C39.1305 23.1218 37.6572 22.2665 34.67 20.8643L33.0323 20.1118C28.3058 17.9506 25.1623 15.2425 25.1623 9.52215C25.1623 4.25027 28.9065 0.238392 34.7572 0.238392C38.9235 0.238392 41.9169 1.7937 44.0761 5.86683L38.9743 9.38214C37.852 7.22089 36.6385 6.36996 34.7572 6.36996C32.8374 6.36996 31.6218 7.67589 31.6218 9.38214C31.6218 11.4909 32.8395 12.344 35.6502 13.65L37.2879 14.4025C42.8585 16.9596 46 19.5715 46 25.4428C46 31.769 41.3649 35.2362 35.1428 35.2362C29.0567 35.2362 25.6007 31.944 23.6768 27.8687L28.8274 24.1828ZM5.31495 24.3621C6.34182 26.344 7.90241 27.8687 10.1469 27.8687C12.294 27.8687 13.5299 26.9543 13.5299 23.3996V0.236206H20.2938V24.5196C20.2938 31.885 16.3304 35.2362 10.5426 35.2362C5.31292 35.2362 1.53827 31.4168 0 27.8687L5.31495 24.3621Z" fill="white"/>
</svg>
