<svg width="26" height="27" viewBox="0 0 26 27" fill="none" xmlns="http://www.w3.org/2000/svg">
<path d="M5.64423 26.7924H0.0926514V8.28711H5.64423V26.7924ZM26 26.7924H20.4485V16.9069C20.4485 14.3309 19.5306 13.0485 17.7115 13.0485C16.27 13.0485 15.3558 13.7665 14.8969 15.2044C14.8969 17.5397 14.8969 26.7924 14.8969 26.7924H9.34529C9.34529 26.7924 9.41931 10.1376 9.34529 8.28711H13.7273L14.066 11.9882H14.1807C15.3188 10.1376 17.1379 8.88298 19.6324 8.88298C21.5292 8.88298 23.0632 9.41038 24.2346 10.7354C25.4134 12.0622 26 13.8424 26 16.3425V26.7924Z" fill="white"/>
<path d="M2.86832 6.43659C4.45245 6.43659 5.73664 5.19383 5.73664 3.6608C5.73664 2.12777 4.45245 0.88501 2.86832 0.88501C1.28419 0.88501 0 2.12777 0 3.6608C0 5.19383 1.28419 6.43659 2.86832 6.43659Z" fill="white"/>
</svg>
