<svg width="24" height="53" viewBox="0 0 24 53" fill="none" xmlns="http://www.w3.org/2000/svg">
<path d="M10 36.2362L14 36.2362L14 52.2362L10 52.2362L10 36.2362Z" fill="white"/>
<path d="M12 0.236206C12 0.236206 1.0515e-07 10.2362 2.73391e-07 26.2362C3.82747e-07 36.6362 6.6 43.2362 10 46.2362L12 40.2362L14 46.2362C17.4 43.2362 24 36.6362 24 26.2362C24 10.2362 12 0.236206 12 0.236206Z" fill="white"/>
<path d="M12.9601 0.236206C12.9601 0.236206 0.960083 10.2362 0.960083 26.2362C0.960083 36.6362 7.56008 43.2362 10.9601 46.2362L12.9601 40.2362L12.9601 0.236206Z" fill="white"/>
</svg>
