<svg width="46" height="42" viewBox="0 0 46 42" fill="none" xmlns="http://www.w3.org/2000/svg">
<path fill-rule="evenodd" clip-rule="evenodd" d="M46 8.57814V0.894219C45.9996 0.779028 45.9691 0.665941 45.9115 0.566219C45.8538 0.466497 45.771 0.383621 45.6714 0.325844C45.5717 0.268068 45.4587 0.237409 45.3435 0.236919C45.2283 0.236429 45.115 0.266126 45.0148 0.323052L39.9548 3.21339C39.7533 3.32883 39.5859 3.49544 39.4694 3.69636C39.353 3.89729 39.2917 4.1254 39.2917 4.35764V12.0416C39.2917 12.5476 39.8379 12.8657 40.2768 12.6127L45.3368 9.72239C45.5386 9.60678 45.7063 9.43987 45.8227 9.23858C45.9392 9.03729 46.0003 8.81069 46 8.57814ZM0.987083 0.324969L15.6362 8.72572C15.8357 8.84004 16.0617 8.90018 16.2917 8.90018C16.5216 8.90018 16.7476 8.84004 16.9472 8.72572L31.5963 0.324969C31.6964 0.267569 31.81 0.237489 31.9254 0.237739C32.0409 0.237988 32.1543 0.268558 32.2542 0.32639C32.3542 0.384222 32.4372 0.467288 32.4949 0.567275C32.5527 0.667263 32.5832 0.780665 32.5833 0.896136V23.9536C32.5833 24.4041 32.3533 24.8219 31.9719 25.0653L23.0594 30.7252L29.0202 34.2365C29.4419 34.4857 29.969 34.48 30.3868 34.2193L39.2227 28.7031C39.3173 28.6437 39.3953 28.5611 39.4493 28.4632C39.5033 28.3653 39.5315 28.2553 39.5312 28.1435V20.3139C39.5312 19.8271 39.7996 19.3824 40.2251 19.1524L45.0302 16.5726C45.1306 16.519 45.2431 16.4923 45.3569 16.4951C45.4707 16.4979 45.5818 16.5301 45.6794 16.5885C45.777 16.647 45.8579 16.7297 45.9141 16.8287C45.9702 16.9277 45.9998 17.0395 46 17.1533V31.5877C46 32.0554 45.7508 32.4885 45.3483 32.7243L30.3332 41.5256C30.1262 41.6468 29.8901 41.7092 29.6504 41.7061C29.4106 41.7031 29.1762 41.6347 28.9723 41.5084L17.5624 34.4531C17.4668 34.3939 17.3878 34.3113 17.3332 34.213C17.2785 34.1147 17.2498 34.004 17.25 33.8915V26.9456C17.25 26.7251 17.3592 26.5201 17.5432 26.3974L25.2866 21.2339C25.4673 21.1137 25.6156 20.9507 25.7182 20.7595C25.8209 20.5682 25.8747 20.3546 25.875 20.1376V11.7234C25.8749 11.6768 25.8625 11.6312 25.839 11.591C25.8155 11.5508 25.7817 11.5177 25.7412 11.4948C25.7006 11.472 25.6547 11.4604 25.6082 11.4612C25.5616 11.4619 25.5161 11.475 25.4763 11.4991L16.9663 16.6051C16.7624 16.7276 16.5291 16.7926 16.2912 16.7933C16.0534 16.794 15.8197 16.7303 15.6151 16.609L6.98625 11.4953C6.9462 11.4717 6.90066 11.4591 6.85419 11.4588C6.80772 11.4584 6.76198 11.4703 6.72156 11.4932C6.68115 11.5161 6.64748 11.5493 6.62396 11.5894C6.60044 11.6294 6.5879 11.675 6.58758 11.7215V26.9264C6.58739 27.0428 6.55639 27.1571 6.49773 27.2576C6.43906 27.3581 6.35483 27.4413 6.25359 27.4988C6.15235 27.5562 6.03771 27.5858 5.92131 27.5846C5.80492 27.5834 5.69093 27.5514 5.59092 27.4918L0.958333 24.7126C0.364167 24.3561 0 23.7121 0 23.0183V0.896136C0 0.390136 0.548167 0.071969 0.987083 0.324969Z" fill="white"/>
</svg>
