<svg width="46" height="26" viewBox="0 0 46 26" fill="none" xmlns="http://www.w3.org/2000/svg">
<path d="M0.00191675 23.237L1.84192 23.237L1.84192 16.4472L4.39779 22.2519C4.71308 22.9754 5.14433 23.2313 5.99054 23.2313C6.83675 23.2313 7.25075 22.9754 7.56604 22.2519L10.1219 16.5958L10.1219 23.237L11.9619 23.237L11.9619 16.2814C11.9619 15.6135 11.6965 15.2896 11.1483 15.1228C9.83825 14.7107 8.9585 15.0663 8.56079 15.9585L5.93975 21.8618L3.40112 15.9585C3.01971 15.0672 2.12462 14.7107 0.813625 15.1228C0.265458 15.2896 6.94395e-09 15.6125 1.39676e-08 16.2805L8.71058e-08 23.2361L0.00191675 23.237Z" fill="white"/>
<path d="M12.881 17.7171L14.721 17.7171L14.721 21.6031C14.7066 21.7948 14.7823 22.3037 15.6697 22.3171C16.1221 22.3248 18.3732 22.3171 18.401 22.3171L18.401 17.7171L20.241 17.7171C20.2486 17.7171 20.241 23.4364 20.241 23.4604C20.2506 24.8711 18.4891 25.0531 17.6794 25.0771L12.8819 25.0771L12.8819 24.1571C12.8915 24.1571 17.4695 24.1581 17.4829 24.1571C18.5256 24.0469 18.4019 23.4729 18.4019 23.2984L18.4019 23.2371L15.5154 23.2371C13.915 23.2227 12.8944 22.5174 12.8829 21.7134C12.881 21.6386 12.9174 17.7516 12.881 17.7171Z" fill="white"/>
<path d="M21.161 23.2371L25.7677 23.2371C26.3714 23.2371 26.9579 23.1106 27.4237 22.8921C28.1999 22.5356 28.52 22.0536 28.52 21.4201L28.52 20.1091C28.52 18.6946 26.7662 18.6371 25.76 18.6371L23.92 18.6371C23.1965 18.6371 23.0862 18.2001 23 17.7171L23 16.7971C23.0862 16.4291 23.2472 15.9346 23.8845 15.8771C24.6253 15.8771 28.519 15.8771 28.519 15.8771L28.519 14.9571L24.1433 14.9571C23.4197 14.9571 21.159 15.0433 21.159 16.7971L21.159 17.9346C21.159 18.7396 21.8663 19.3951 23.4015 19.5561C23.574 19.5676 23.7465 19.5791 23.9181 19.5791C23.9181 19.5791 25.7063 19.5446 25.7581 19.5561C26.7931 19.5561 26.6781 20.3611 26.6781 20.4761L26.6781 21.3961C26.6781 21.5226 26.6493 22.3161 25.7475 22.3161C25.6785 22.3161 21.1581 22.3161 21.1581 22.3161L21.1581 23.2371L21.161 23.2371Z" fill="white"/>
<path d="M38.64 21.3578C38.64 22.4685 39.2677 23.0914 40.9324 23.216C41.0876 23.2265 41.2438 23.2361 41.4 23.2361L46 23.2361L46 22.3161L41.7498 22.3161C40.8001 22.3161 40.48 21.9174 40.48 21.3472L40.48 14.9561L38.64 14.9561L38.64 21.3578Z" fill="white"/>
<path d="M29.4247 21.3971L29.4247 16.7971C29.4247 15.8196 29.9038 15.1449 31.2608 14.9571L31.9048 14.9571L35.2082 14.9571L35.7113 14.9571C37.0683 15.1449 37.7047 15.8186 37.7047 16.7971L37.7047 21.3798C37.7047 22.1724 37.4986 22.5979 36.8268 22.8739L38.2528 24.1561L36.1828 24.1561L35.1574 23.2361L33.9528 23.2361L31.9058 23.2476C31.6097 23.2476 31.2973 23.2064 30.9542 23.1125C29.9249 22.8317 29.4247 22.2912 29.4247 21.3971ZM31.2647 21.3971C31.3586 21.8446 31.718 22.3171 32.3572 22.3171L34.1435 22.3171L33.12 21.3971L35.2044 21.3971L35.7018 21.859C35.7018 21.859 35.88 21.7133 35.88 21.3971C35.88 21.0808 35.8647 16.7971 35.8647 16.7971C35.7708 16.3812 35.3491 15.8771 34.7262 15.8771L32.3581 15.8771C31.6403 15.8771 31.2656 16.4023 31.2656 16.891L31.2647 21.3971Z" fill="white"/>
<path d="M44.274 13.9873C43.286 13.9604 42.5318 14.0524 41.8868 14.3236C41.7038 14.4013 41.4115 14.4032 41.3808 14.6332C41.4814 14.7386 41.4968 14.8967 41.5773 15.0261C41.7306 15.2753 41.9913 15.6097 42.2232 15.7841C42.4772 15.9758 42.7388 16.1809 43.01 16.3467C43.493 16.6409 44.0325 16.8096 44.4983 17.1047C44.7724 17.2782 45.0445 17.4986 45.3129 17.6941C45.4451 17.7918 45.5333 17.9423 45.7058 18.0036C45.7058 17.9941 45.7058 17.9854 45.7058 17.9758C45.6157 17.8608 45.5917 17.7027 45.5093 17.582C45.3876 17.4603 45.2659 17.3386 45.1442 17.2168C44.7877 16.7434 44.3334 16.3266 43.8524 15.9816C43.4681 15.7056 42.6084 15.3328 42.4474 14.8862C42.4379 14.8766 42.4292 14.868 42.4187 14.8574C42.6909 14.8268 43.01 14.7281 43.2611 14.661C43.6837 14.5479 44.0603 14.5776 44.4964 14.4645C44.6928 14.408 44.8893 14.3524 45.0857 14.2958C45.0857 14.2585 45.0857 14.2211 45.0857 14.1837C44.8653 13.9576 44.7072 13.6586 44.4676 13.4535C43.838 12.9178 43.1518 12.383 42.4455 11.9364C42.0536 11.6892 41.5687 11.5282 41.1537 11.3183C41.0138 11.2474 40.7684 11.211 40.6764 11.0941C40.4579 10.8161 40.3401 10.4625 40.1714 10.1396C39.8187 9.46105 39.4718 8.7193 39.1604 8.00534C38.9467 7.51851 38.8077 7.03743 38.5422 6.60043C37.2667 4.5036 35.8934 3.23764 33.7678 1.99372C33.3155 1.72922 32.7702 1.62476 32.1942 1.48772C31.8847 1.46951 31.5761 1.45035 31.2666 1.43118C31.0778 1.35164 30.8823 1.12164 30.704 1.00951C29.9997 0.563888 28.1922 -0.404029 27.6709 0.868637C27.3412 1.67172 28.1635 2.45564 28.4577 2.86293C28.6637 3.14851 28.9282 3.4686 29.0758 3.7906C29.1726 4.00143 29.1899 4.21322 29.2723 4.43651C29.4764 4.9866 29.7994 5.61334 30.0639 6.12222C30.1971 6.38001 30.3447 6.65026 30.5133 6.88026C30.6168 7.02114 30.7941 7.08343 30.8229 7.30193C30.6494 7.54439 30.6398 7.92101 30.5421 8.2296C30.1032 9.61439 30.2689 11.3346 30.9072 12.3581C31.1027 12.6724 31.5646 13.3471 32.199 13.0883C32.7539 12.8622 32.6303 12.1616 32.7884 11.5435C32.8239 11.4036 32.8018 11.3011 32.8727 11.2071C32.8727 11.2167 32.8727 11.2253 32.8727 11.2359C33.0414 11.5723 33.2091 11.9106 33.3787 12.2469C33.7534 12.8497 34.4176 13.4793 34.9792 13.9048C35.2705 14.1253 35.5005 14.5067 35.8781 14.6351C35.8781 14.6255 35.8781 14.6169 35.8781 14.6063C35.8685 14.6063 35.8599 14.6063 35.8493 14.6063C35.7765 14.4923 35.6615 14.4453 35.5685 14.3533C35.3491 14.1377 35.1037 13.8703 34.9226 13.6231C34.4109 12.9283 33.9585 12.1674 33.5464 11.3758C33.35 10.9973 33.1784 10.5813 33.0127 10.1961C32.9484 10.0476 32.9494 9.8233 32.8162 9.74664C32.6341 10.0284 32.3677 10.2565 32.2268 10.589C32.0026 11.1209 31.9729 11.7706 31.8904 12.4424C31.8406 12.4597 31.8627 12.4482 31.8339 12.4702C31.4429 12.3753 31.3049 11.9738 31.1592 11.6278C30.7912 10.7538 30.7232 9.34701 31.0471 8.34172C31.1305 8.08105 31.509 7.26168 31.3567 7.02114C31.2838 6.7806 31.0423 6.64164 30.9082 6.4586C30.7404 6.23243 30.5747 5.93343 30.4587 5.6718C30.1578 4.99043 29.8722 4.19789 29.555 3.50885C29.4036 3.17918 29.1477 2.84664 28.9369 2.55435C28.704 2.23043 28.4424 1.9918 28.2622 1.59985C28.198 1.46089 28.1108 1.2376 28.2057 1.09385C28.2363 0.997055 28.2785 0.956804 28.3743 0.925179C28.5372 0.798679 28.9905 0.966388 29.1611 1.0373C29.6115 1.22418 29.9872 1.40243 30.3686 1.65543C30.5517 1.77714 30.7366 2.01193 30.958 2.0771C31.0423 2.0771 31.1267 2.0771 31.211 2.0771C31.6068 2.16814 32.0495 2.10585 32.4185 2.21797C33.0721 2.41635 33.6567 2.72493 34.1876 3.06035C35.8072 4.08289 37.1306 5.53764 38.0362 7.27414C38.1819 7.55397 38.2452 7.82039 38.3726 8.11651C38.6314 8.71451 38.9582 9.32976 39.215 9.91435C39.4718 10.498 39.7229 11.0864 40.0861 11.5723C40.2778 11.8272 41.0157 11.9642 41.3502 12.1061C41.5849 12.2057 41.9702 12.3083 42.1925 12.4424C42.618 12.6993 43.0301 13.005 43.4278 13.2848C43.631 13.4257 44.2434 13.7333 44.274 13.9873Z" fill="white"/>
<path d="M31.7189 3.28657C31.5128 3.28274 31.3672 3.30861 31.2129 3.34311C31.2129 3.3527 31.2129 3.36132 31.2129 3.37186C31.2225 3.37186 31.2311 3.37186 31.2416 3.37186C31.3403 3.57311 31.5128 3.7044 31.6346 3.87786C31.7285 4.07432 31.8214 4.27078 31.9154 4.46724C31.9249 4.45765 31.9336 4.44903 31.9431 4.43945C32.1166 4.31678 32.1971 4.12128 32.1961 3.82132C32.1262 3.74753 32.1156 3.65553 32.0553 3.56832C31.9748 3.45045 31.8195 3.38432 31.7189 3.28657Z" fill="white"/>
</svg>
