<svg width="46" height="19" viewBox="0 0 46 19" fill="none" xmlns="http://www.w3.org/2000/svg">
<path d="M16.4872 7.06124L11.7846 9.66311C11.6083 9.7599 11.5 9.94007 11.5 10.1346V15.3412C11.5 15.5358 11.6083 15.715 11.7846 15.8127L16.4881 18.4165C16.6635 18.5133 16.881 18.5133 17.0564 18.4165L21.759 15.8127C21.9334 15.715 22.0417 15.5358 22.0417 15.3412V10.1346C22.0417 9.94007 21.9334 9.76086 21.757 9.66311L17.0555 7.06124C16.9673 7.01236 16.8686 6.9884 16.7708 6.9884C16.6721 6.9884 16.5744 7.01236 16.4862 7.06124M40.6822 11.7484L39.8983 12.1816C39.8686 12.1979 39.8513 12.2276 39.8513 12.2602V13.1284C39.8513 13.161 39.8695 13.1907 39.8983 13.207L40.6822 13.6412C40.7119 13.6574 40.7474 13.6574 40.7771 13.6412L41.561 13.207C41.5897 13.1907 41.608 13.161 41.608 13.1284V12.2602C41.608 12.2276 41.5897 12.1979 41.56 12.1816L40.7761 11.7484C40.7617 11.7398 40.7455 11.736 40.7292 11.736C40.7129 11.736 40.6966 11.7398 40.6822 11.7484Z" fill="white"/>
<path d="M34.2614 1.54315L31.972 0.265691C31.9001 0.225441 31.8119 0.2264 31.741 0.268567C31.6701 0.310733 31.626 0.386441 31.626 0.468858L31.625 8.18536L29.5138 7.01715C29.4257 6.96827 29.327 6.94432 29.2292 6.94432C29.1315 6.94432 29.0327 6.96827 28.9446 7.01715H28.9455L24.243 9.61902C24.0667 9.71582 23.9584 9.89598 23.9584 10.0896V15.2962C23.9584 15.4907 24.0667 15.6699 24.243 15.7677L28.9465 18.3715C29.1219 18.4683 29.3394 18.4683 29.5148 18.3715L34.2173 15.7677C34.3917 15.6709 34.5 15.4907 34.5 15.2962V1.94948C34.5 1.78082 34.408 1.62557 34.2614 1.54315ZM31.4966 14.0916L29.3595 15.2751C29.28 15.3192 29.1813 15.3192 29.1017 15.2751L26.9637 14.0916C26.8822 14.0475 26.8334 13.9651 26.8334 13.8769V11.5098C26.8334 11.4216 26.8822 11.3402 26.9627 11.2952L29.1008 10.1126C29.141 10.0905 29.1842 10.08 29.2292 10.08C29.2742 10.08 29.3183 10.0915 29.3586 10.1126L31.4957 11.2952C31.5762 11.3402 31.625 11.4226 31.625 11.5108V13.8779C31.625 13.9651 31.5762 14.0475 31.4966 14.0916Z" fill="white"/>
<path d="M16.4872 7.06124L11.5 15.3412C11.5 15.5358 11.6083 15.715 11.7846 15.8127L16.4881 18.4165C16.6635 18.5133 16.881 18.5133 17.0564 18.4165L22.0417 10.1346C22.0417 9.94007 21.9334 9.76086 21.757 9.66311L17.0555 7.06124C16.9673 7.01236 16.8686 6.9884 16.7708 6.9884C16.6721 6.9884 16.5744 7.01236 16.4862 7.06124" fill="white"/>
<path d="M16.4872 7.06124L11.7846 9.66311C11.6083 9.7599 11.5 9.94007 11.5 10.1346L16.4872 18.4165C16.6625 18.5133 16.8801 18.5133 17.0555 18.4165L21.758 15.8127C21.9334 15.715 22.0417 15.5358 22.0417 15.3412L17.0555 7.06124C16.9673 7.01236 16.8686 6.9884 16.7708 6.9884C16.6721 6.9884 16.5744 7.01236 16.4862 7.06124" fill="white"/>
<path d="M45.7154 9.61898L41.0138 7.01711C40.9256 6.96823 40.8269 6.94427 40.7292 6.94427C40.6314 6.94427 40.5327 6.96823 40.4445 7.01711L35.743 9.61898C35.5676 9.71578 35.4583 9.89978 35.4583 10.101V15.2866C35.4583 15.4869 35.5676 15.6718 35.743 15.7686L40.4465 18.3724C40.6228 18.4701 40.8384 18.4701 41.0147 18.3724L43.1835 17.1716C43.3818 17.0614 43.3809 16.7768 43.1815 16.6675L38.4627 14.0925C38.3832 14.0474 38.3333 13.9641 38.3333 13.874V11.5107C38.3333 11.4226 38.3813 11.3411 38.4579 11.2989L40.5998 10.1144H40.5988C40.6391 10.0924 40.6832 10.0819 40.7282 10.0819C40.7732 10.0819 40.8173 10.0934 40.8576 10.1144L42.9995 11.2999C43.0761 11.3421 43.124 11.4235 43.124 11.5117V13.4399C43.124 13.5223 43.1681 13.5989 43.24 13.6401C43.3119 13.6804 43.4 13.6804 43.4719 13.6392L45.77 12.3042C45.9118 12.2218 46 12.0694 46 11.9046V10.1029C46 9.90073 45.8907 9.71578 45.7154 9.61898ZM10.257 9.61898L5.55546 7.01711C5.46729 6.96823 5.36858 6.94427 5.27083 6.94427C5.17308 6.94427 5.07437 6.96823 4.98621 7.01711L0.284625 9.61898C0.10925 9.71578 0 9.89978 0 10.101V17.255C0 17.3374 0.0440833 17.4141 0.115958 17.4553C0.187833 17.4955 0.276 17.4955 0.347875 17.4543L2.64596 16.1194C2.78779 16.0369 2.875 15.8846 2.875 15.7197V11.5098C2.875 11.4216 2.92292 11.3401 2.99958 11.298L5.14146 10.1135C5.18171 10.0914 5.22579 10.0809 5.27083 10.0809C5.31587 10.0809 5.35996 10.0924 5.40021 10.1135L7.54208 11.2989C7.61875 11.3411 7.66667 11.4226 7.66667 11.5107V15.7207C7.66667 15.8855 7.75387 16.0379 7.89667 16.1203L10.1947 17.4553C10.2666 17.4965 10.3548 17.4965 10.4267 17.4562C10.4976 17.4141 10.5417 17.3374 10.5417 17.255V10.102C10.5417 9.90073 10.4324 9.71578 10.257 9.61898Z" fill="white"/>
</svg>
