<svg width="46" height="40" viewBox="0 0 46 40" fill="none" xmlns="http://www.w3.org/2000/svg">
<path d="M23 29.8195C10.6375 29.8195 0.958374 25.6028 0.958374 20.2362C0.958374 14.8695 10.6375 10.6528 23 10.6528C35.3625 10.6528 45.0417 14.8695 45.0417 20.2362C45.0417 25.6028 35.3625 29.8195 23 29.8195ZM23 12.5695C10.925 12.5695 2.87504 16.4987 2.87504 20.2362C2.87504 23.9737 10.925 27.9028 23 27.9028C35.075 27.9028 43.125 23.9737 43.125 20.2362C43.125 16.4987 35.075 12.5695 23 12.5695Z" fill="white"/>
<path d="M14.4709 39.9779C13.5126 39.9779 12.7459 39.7862 11.9792 39.307C7.28339 36.6237 8.52922 26.1779 14.6626 15.4445C17.5376 10.4612 21.0834 6.24454 24.5334 3.56121C28.2709 0.68621 31.6251 -0.17629 33.9251 1.16538C36.3209 2.50704 37.1834 5.86121 36.6084 10.557C36.0334 14.9654 34.1167 20.1404 31.2417 25.1237C28.3667 30.107 24.8209 34.3237 21.3709 37.007C18.8792 38.9237 16.4834 39.9779 14.4709 39.9779ZM31.5292 2.41121C29.9959 2.41121 27.9834 3.27371 25.7792 4.99871C22.5209 7.58621 19.1667 11.6112 16.3876 16.4029C10.3501 26.8487 9.77506 35.857 12.9376 37.6779C14.5667 38.6362 17.2501 37.7737 20.2209 35.4737C23.4792 32.8862 26.8334 28.8612 29.6126 24.0695C32.3917 19.2779 34.2126 14.3904 34.7876 10.2695C35.2667 6.43621 34.6917 3.75288 33.0626 2.79454C32.5834 2.60288 32.1042 2.41121 31.5292 2.41121Z" fill="white"/>
<path d="M31.6249 39.9778C26.8333 39.9778 19.9333 34.132 14.7583 25.0278C8.52912 14.2945 7.28328 3.84865 11.9791 1.16532C16.675 -1.51802 25.1083 4.71115 31.3375 15.4445C34.2125 20.4278 36.1291 25.6028 36.7041 30.0112C37.3749 34.707 36.4166 37.9653 34.0208 39.4028C33.2541 39.7862 32.4874 39.9778 31.6249 39.9778ZM12.9375 2.79448C9.77495 4.61532 10.35 13.6237 16.3875 24.0695C22.425 34.5153 29.9 39.4987 33.0624 37.6778C34.6916 36.7195 35.2666 34.0362 34.7874 30.2028C34.2124 26.082 32.3916 21.1945 29.6124 16.4028C23.5749 5.95699 16.1 0.973652 12.9375 2.79448Z" fill="white"/>
<path d="M23 24.0695C25.1171 24.0695 26.8333 22.3533 26.8333 20.2362C26.8333 18.1191 25.1171 16.4028 23 16.4028C20.8829 16.4028 19.1666 18.1191 19.1666 20.2362C19.1666 22.3533 20.8829 24.0695 23 24.0695Z" fill="white"/>
</svg>
