<svg width="1366" height="540" viewBox="0 0 1366 540" fill="none" xmlns="http://www.w3.org/2000/svg">
<g clip-path="url(#clip0_29_114)">
<path d="M43.1875 173C45.9375 179.363 33.3281 183.293 32.1562 188.594C31.082 193.465 39.6484 199.125 39.6562 199.125C38.3555 197.109 37.3984 195.449 36.0938 192.313C33.8867 187.008 49.5352 182.207 43.1875 173ZM51.5625 181.813C51.5625 181.813 40.5 182.523 39.9375 189.594C39.6875 192.742 42.8477 194.398 42.9375 196.688C43.0117 198.559 41.0625 200.125 41.0625 200.125C41.0625 200.125 44.6094 199.449 45.7188 196.594C46.9492 193.426 43.3203 191.285 43.6875 188.75C44.0391 186.324 51.5625 181.813 51.5625 181.813ZM34.1875 198.156C34.1875 198.156 24.0625 198.012 24.0625 200.875C24.0625 203.867 37.3164 204.09 46.7812 202.25C46.7812 202.25 49.2969 200.52 49.9688 199.875C43.7656 201.141 29.625 201.281 29.625 200.188C29.625 199.18 34.1875 198.156 34.1875 198.156ZM53.6562 198.156C52.6641 198.234 51.5938 198.617 50.625 199.313C52.9062 198.82 54.8438 200.234 54.8438 201.844C54.8438 205.469 49.5938 208.875 49.5938 208.875C49.5938 208.875 57.7188 207.953 57.7188 202C57.7188 199.297 55.8398 197.984 53.6562 198.156ZM31.75 203.719C30.1953 203.719 27.875 204.938 27.875 206.094C27.875 208.418 39.5625 210.207 48.2188 206.813L45.2188 204.969C39.3516 206.848 28.5469 206.234 31.75 203.719ZM33.1875 208.938C31.0586 208.938 29.6562 210.223 29.6562 211.188C29.6562 214.172 42.3711 214.473 47.4062 211.438L44.2188 209.406C40.457 210.996 31.0156 211.238 33.1875 208.938ZM26.0938 211.625C22.625 211.555 20.375 213.113 20.375 214.406C20.375 221.281 55.875 220.965 55.875 213.938C55.875 212.77 54.5273 212.203 54.0312 211.938C56.9336 218.656 24.9688 218.121 24.9688 214.156C24.9688 213.254 27.3203 212.391 29.5 212.813L27.6562 211.75C27.1133 211.668 26.5898 211.637 26.0938 211.625ZM59.625 216.25C54.2266 221.367 40.5469 223.223 26.7812 220.063C40.543 225.695 59.5586 222.535 59.625 216.25Z" fill="black" fill-opacity="0.08"/>
</g>
<g clip-path="url(#clip1_29_114)">
<path d="M370 3.00006H417V50.0001H370V3.00006ZM413.15 38.7906C412.807 36.6462 411.411 34.8445 407.269 33.1643C405.828 32.4886 404.226 32.0186 403.75 30.9318C403.572 30.2855 403.544 29.933 403.66 29.5511C403.954 28.2861 405.452 27.9061 406.627 28.2586C407.39 28.4936 408.095 29.0811 408.538 30.0211C410.563 28.6973 410.563 28.6973 411.975 27.818C411.446 26.9955 411.184 26.6411 410.827 26.2905C409.594 24.9099 407.951 24.2049 405.277 24.2656L403.897 24.4399C402.573 24.763 401.312 25.468 400.548 26.408C398.316 28.9362 398.96 33.3425 401.662 35.1637C404.335 37.1612 408.244 37.5999 408.744 39.4819C409.214 41.7731 407.04 42.5075 404.894 42.2431C403.305 41.8906 402.426 41.0955 401.457 39.6268L397.873 41.685C398.284 42.625 398.754 43.0343 399.459 43.8568C402.867 47.2956 411.385 47.1194 412.915 41.8906C412.972 41.7144 413.385 40.51 413.06 38.6594L413.15 38.7906ZM395.558 24.6024H391.156C391.156 28.3977 391.138 32.1694 391.138 35.9706C391.138 38.3832 391.262 40.5981 390.868 41.2796C390.222 42.6289 388.557 42.4566 387.801 42.2196C387.026 41.8358 386.632 41.307 386.176 40.5452C386.052 40.3396 385.96 40.1614 385.927 40.1614L382.353 42.3645C382.95 43.5983 383.822 44.6597 384.946 45.3353C386.62 46.3341 388.871 46.6572 391.226 46.1284C392.76 45.6859 394.082 44.7752 394.773 43.3652C395.772 41.544 395.56 39.3115 395.55 36.8126C395.574 32.7902 395.55 28.7659 395.55 24.7121L395.558 24.6024Z" fill="black" fill-opacity="0.08"/>
</g>
<g clip-path="url(#clip2_29_114)">
<path d="M501.375 146.27L502.725 146.57L503.82 146.96L504.705 147.41L505.38 147.89L505.89 148.4L506.265 148.91L506.505 149.405L506.655 149.855L506.715 150.245L506.745 150.545L506.73 150.74L506.73 158.75L506.655 159.695L506.46 160.52L506.145 161.21L505.755 161.78L505.305 162.245L504.81 162.62L504.285 162.905L503.76 163.115L503.265 163.265L502.815 163.37L502.425 163.43L502.11 163.46L493.155 163.46L492.12 163.535L491.235 163.745L490.485 164.075L489.87 164.48L489.375 164.96L488.97 165.485L488.67 166.025L488.445 166.58L488.295 167.105L488.19 167.585L488.13 167.99L488.1 168.305L488.1 172.895L484.755 172.895L484.44 172.85L484.02 172.745L483.54 172.565L483.015 172.295L482.475 171.905L481.935 171.365L481.41 170.675L480.93 169.79L480.51 168.695L480.195 167.375L479.985 165.8L479.91 163.955L480 162.125L480.24 160.565L480.6 159.26L481.08 158.195L481.62 157.34L482.22 156.68L482.85 156.185L483.48 155.825L484.08 155.585L484.62 155.435L485.1 155.36L485.46 155.345L485.7 155.345L485.79 155.36L498.03 155.36L498.03 154.115L489.27 154.115L489.255 149.99L489.225 149.435L489.3 148.925L489.465 148.46L489.72 148.04L490.095 147.65L490.56 147.305L491.13 147.005L491.79 146.735L492.555 146.51L493.425 146.33L494.385 146.18L495.45 146.09L496.605 146.03L497.865 146L499.77 146.075L501.375 146.27ZM491.925 149.24L491.58 149.735L491.46 150.35L491.58 150.965L491.925 151.475L492.42 151.805L493.035 151.94L493.65 151.805L494.145 151.475L494.49 150.965L494.61 150.35L494.49 149.735L494.145 149.24L493.65 148.91L493.035 148.775L492.42 148.91L491.925 149.24ZM511.56 155.165L511.98 155.255L512.46 155.435L512.985 155.705L513.525 156.11L514.065 156.635L514.59 157.34L515.07 158.225L515.49 159.32L515.805 160.64L516.015 162.2L516.09 164.045L516 165.89L515.76 167.45L515.4 168.74L514.92 169.805L514.38 170.66L513.78 171.335L513.15 171.83L512.52 172.19L511.92 172.43L511.38 172.565L510.9 172.64L510.54 172.67L510.3 172.655L497.97 172.655L497.97 173.885L506.73 173.885L506.745 178.025L506.775 178.565L506.7 179.075L506.535 179.54L506.28 179.975L505.905 180.35L505.44 180.71L504.87 181.01L504.21 181.265L503.445 181.49L502.575 181.685L501.615 181.82L500.55 181.925L499.395 181.985L498.135 182L496.23 181.94L494.625 181.73L493.275 181.43L492.18 181.055L491.295 180.605L490.62 180.11L490.11 179.6L489.735 179.09L489.495 178.595L489.345 178.145L489.285 177.77L489.255 177.47L489.27 177.275L489.27 169.265L489.345 168.305L489.54 167.495L489.855 166.805L490.245 166.235L490.695 165.755L491.19 165.395L491.715 165.095L492.24 164.885L492.735 164.735L493.185 164.645L493.575 164.585L493.89 164.555L494.085 164.54L502.845 164.54L503.88 164.465L504.765 164.255L505.515 163.94L506.13 163.52L506.625 163.04L507.03 162.515L507.33 161.975L507.555 161.435L507.705 160.91L507.81 160.43L507.87 160.01L507.9 159.695L507.9 155.105L511.035 155.105L511.245 155.12L511.56 155.165ZM501.855 176.54L501.51 177.035L501.39 177.65L501.51 178.265L501.855 178.76L502.35 179.105L502.965 179.225L503.58 179.105L504.075 178.76L504.42 178.265L504.54 177.65L504.42 177.035L504.075 176.54L503.58 176.195L502.965 176.075L502.35 176.195L501.855 176.54Z" fill="black" fill-opacity="0.08"/>
</g>
<g clip-path="url(#clip3_29_114)">
<path d="M344.999 408.594C344.895 408.594 344.871 408.543 344.922 408.463L345.465 407.768C345.516 407.69 345.644 407.64 345.748 407.64H354.961C355.063 407.64 355.089 407.717 355.038 407.794L354.599 408.463C354.548 408.543 354.418 408.618 354.341 408.618L344.999 408.594ZM341.104 410.967C341 410.967 340.973 410.917 341.026 410.839L341.568 410.142C341.618 410.064 341.749 410.013 341.852 410.013H353.618C353.722 410.013 353.773 410.091 353.746 410.168L353.541 410.786C353.515 410.89 353.413 410.941 353.309 410.941L341.104 410.967ZM347.349 413.341C347.245 413.341 347.219 413.264 347.272 413.187L347.632 412.542C347.682 412.465 347.786 412.387 347.89 412.387H353.051C353.155 412.387 353.205 412.465 353.205 412.569L353.155 413.187C353.155 413.291 353.051 413.368 352.974 413.368L347.349 413.341ZM374.134 408.13C372.508 408.543 371.398 408.852 369.799 409.265C369.41 409.366 369.386 409.393 369.048 409.006C368.664 408.567 368.379 408.284 367.838 408.026C366.21 407.227 364.636 407.458 363.167 408.412C361.412 409.548 360.508 411.226 360.535 413.315C360.559 415.38 361.979 417.082 364.017 417.367C365.773 417.599 367.242 416.981 368.405 415.667C368.637 415.38 368.843 415.071 369.101 414.708H364.121C363.58 414.708 363.45 414.373 363.631 413.935C363.967 413.136 364.585 411.793 364.947 411.122C365.002 410.998 365.093 410.892 365.208 410.819C365.322 410.745 365.456 410.707 365.592 410.709H374.984C374.933 411.407 374.933 412.103 374.829 412.8C374.562 414.638 373.834 416.377 372.714 417.857C370.857 420.309 368.43 421.832 365.36 422.243C362.832 422.579 360.482 422.089 358.419 420.543C356.509 419.096 355.425 417.186 355.142 414.812C354.806 411.999 355.632 409.47 357.335 407.251C359.168 404.853 361.593 403.329 364.561 402.79C366.985 402.348 369.309 402.635 371.398 404.051C372.767 404.956 373.745 406.193 374.392 407.69C374.547 407.922 374.443 408.052 374.134 408.132M382.676 422.4C380.326 422.347 378.184 421.676 376.377 420.128C374.875 418.861 373.884 417.091 373.591 415.148C373.127 412.233 373.926 409.651 375.682 407.355C377.566 404.877 379.836 403.587 382.908 403.048C385.54 402.585 388.018 402.839 390.261 404.362C392.3 405.754 393.565 407.64 393.901 410.115C394.338 413.6 393.333 416.438 390.933 418.864C389.23 420.594 387.139 421.676 384.738 422.166C384.043 422.298 383.347 422.321 382.676 422.4ZM388.815 411.977C388.791 411.639 388.791 411.38 388.74 411.122C388.276 408.567 385.926 407.125 383.475 407.69C381.075 408.231 379.527 409.755 378.959 412.18C378.495 414.194 379.476 416.232 381.333 417.06C382.753 417.679 384.171 417.599 385.54 416.906C387.578 415.846 388.687 414.194 388.817 411.974L388.815 411.977Z" fill="black" fill-opacity="0.08"/>
</g>
<g clip-path="url(#clip4_29_114)">
<path d="M198 443H183V428H198L190.5 435.5L198 443Z" fill="black" fill-opacity="0.08"/>
</g>
<g clip-path="url(#clip5_29_114)">
<path d="M591.672 415C590.192 415 589 416.192 589 417.672L589 469.328C589 470.808 590.192 472 591.672 472L643.328 472C644.808 472 646 470.808 646 469.328L646 417.672C646 416.192 644.808 415 643.328 415L591.672 415ZM632.909 438.156C634.363 438.156 635.65 438.244 636.773 438.42C637.833 438.579 638.872 438.849 639.875 439.227L639.875 445.065C639.394 444.732 638.882 444.445 638.348 444.208C637.796 443.96 637.227 443.753 636.645 443.59C635.542 443.283 634.403 443.123 633.258 443.115C632.546 443.115 631.897 443.182 631.313 443.32C630.792 443.431 630.293 443.625 629.833 443.894C629.43 444.141 629.121 444.438 628.9 444.783C628.678 445.13 628.562 445.534 628.568 445.946C628.568 446.412 628.693 446.832 628.938 447.203C629.185 447.573 629.537 447.925 629.99 448.257C630.444 448.59 630.995 448.913 631.643 449.231C632.292 449.552 633.025 449.882 633.842 450.219C634.959 450.687 635.961 451.186 636.849 451.71C637.737 452.238 638.5 452.834 639.136 453.499C639.773 454.161 640.257 454.919 640.595 455.772C640.932 456.624 641.103 457.615 641.103 458.748C641.103 460.308 640.806 461.621 640.217 462.681C639.641 463.725 638.816 464.611 637.813 465.257C636.733 465.942 635.536 466.422 634.282 466.673C632.938 466.958 631.52 467.1 630.03 467.1C628.565 467.107 627.102 466.976 625.661 466.711C624.413 466.495 623.204 466.101 622.07 465.54L622.07 459.294C624.216 461.12 626.939 462.13 629.757 462.144C630.548 462.144 631.239 462.073 631.828 461.93C632.42 461.788 632.911 461.588 633.308 461.336C633.702 461.08 633.997 460.781 634.194 460.434C634.412 460.03 634.511 459.573 634.48 459.115C634.449 458.658 634.289 458.218 634.018 457.847C633.665 457.38 633.234 456.979 632.743 456.66C632.134 456.256 631.493 455.904 630.826 455.605C630.036 455.245 629.238 454.899 628.435 454.57C626.254 453.66 624.63 452.546 623.559 451.233C622.49 449.92 621.953 448.331 621.953 446.471C621.953 445.013 622.245 443.761 622.83 442.714C623.414 441.667 624.207 440.804 625.214 440.128C626.279 439.425 627.462 438.919 628.705 438.634C630.083 438.309 631.494 438.149 632.909 438.156ZM597.016 438.603L619.728 438.603L619.728 443.747L611.577 443.747L611.577 466.656L605.124 466.656L605.124 443.747L597.016 443.747L597.016 438.603Z" fill="black" fill-opacity="0.08"/>
</g>
<path d="M759.029 227.751C758.577 226.942 757.951 226.236 757.264 225.825L733.387 211.616C732.008 210.795 729.758 210.795 728.382 211.616L704.5 225.825C703.124 226.643 702 228.653 702 230.292V258.711C702 259.532 702.282 260.442 702.734 261.251C703.186 262.061 703.812 262.767 704.5 263.178L728.376 277.387C729.752 278.205 732.006 278.205 733.381 277.387L757.258 263.178C757.946 262.767 758.572 262.061 759.024 261.251C759.476 260.442 759.755 259.532 759.755 258.711V230.292C759.763 229.471 759.484 228.561 759.029 227.751ZM730.879 264.35C720.262 264.35 711.625 255.445 711.625 244.501C711.625 233.558 720.265 224.653 730.882 224.653C734.259 224.659 737.576 225.579 740.502 227.319C743.427 229.059 745.859 231.56 747.554 234.571L739.223 239.541C738.376 238.032 737.16 236.78 735.696 235.908C734.233 235.036 732.572 234.575 730.882 234.571C728.327 234.574 725.878 235.621 724.072 237.482C722.266 239.344 721.25 241.869 721.248 244.501C721.252 247.133 722.268 249.655 724.073 251.516C725.878 253.376 728.326 254.423 730.879 254.426C732.569 254.422 734.228 253.962 735.692 253.091C737.156 252.22 738.372 250.969 739.221 249.462L747.557 254.431C745.861 257.443 743.428 259.944 740.502 261.684C737.575 263.425 734.257 264.344 730.879 264.35ZM750.135 245.604H747.996V247.81H745.856V245.604H743.716V243.399H745.856V241.193H747.996V243.399H750.135V245.604ZM758.157 245.604H756.018V247.81H753.878V245.604H751.739V243.399H753.878V241.193H756.018V243.399H758.157V245.604Z" fill="black" fill-opacity="0.08"/>
<g clip-path="url(#clip6_29_114)">
<path d="M698.195 86.1038C701.986 86.7601 703.061 89.3513 702.981 92.0663L703 92.0276L701.294 114.388L679.112 115.908H679.133C677.291 115.83 673.188 115.661 673 109.924L675.056 106.174L678.58 114.406L679.209 115.871L682.715 104.441L682.677 104.45L682.698 104.413L694.266 108.108L692.521 101.319L691.284 96.4438L702.309 95.7326L701.54 95.0951L693.625 88.6426L698.199 86.0913L698.195 86.1038ZM679.413 92.3413C683.864 87.9251 689.609 85.3151 691.815 87.5413C694.017 89.7626 691.684 95.1726 687.224 99.5863C682.77 104.001 677.095 106.754 674.894 104.533C672.686 102.311 674.95 96.7613 679.409 92.3451L679.413 92.3413Z" fill="black" fill-opacity="0.08"/>
</g>
<path d="M279.025 130.398C278.829 130.398 278.696 130.422 278.557 130.454V130.476H278.581C278.673 130.654 278.83 130.784 278.947 130.943C279.039 131.125 279.117 131.308 279.21 131.489L279.234 131.464C279.394 131.351 279.473 131.17 279.473 130.895C279.404 130.814 279.394 130.734 279.336 130.656C279.268 130.541 279.121 130.485 279.029 130.394L279.025 130.398ZM260.857 152.937H259.273C259.229 150.421 259.075 147.907 258.812 145.404H258.799L256.39 152.937H255.185L252.794 145.404H252.777C252.59 147.911 252.479 150.423 252.444 152.937H251C251.094 149.579 251.328 146.429 251.7 143.49H253.665L255.946 150.433H255.959L258.26 143.49H260.131C260.544 146.933 260.787 150.084 260.862 152.937H260.857ZM267.719 145.967C267.074 149.461 266.223 152.003 265.171 153.587C264.347 154.81 263.445 155.42 262.466 155.42C262.205 155.42 261.885 155.341 261.499 155.184V154.34C261.687 154.369 261.909 154.384 262.159 154.384C262.617 154.384 262.984 154.256 263.264 154.005C263.601 153.698 263.768 153.352 263.768 152.972C263.768 152.707 263.637 152.169 263.375 151.359L261.643 145.967H263.198L264.439 149.999C264.72 150.915 264.837 151.554 264.79 151.917C265.473 150.1 265.948 148.113 266.216 145.967H267.719ZM288.775 152.937H284.282V143.49H285.794V151.776H288.775V152.937ZM283.103 153.168L281.367 152.314C281.521 152.184 281.67 152.044 281.803 151.887C282.543 151.022 282.91 149.738 282.91 148.038C282.91 144.912 281.683 143.347 279.229 143.347C278.026 143.347 277.086 143.743 276.41 144.537C275.675 145.405 275.306 146.683 275.306 148.373C275.306 150.033 275.631 151.253 276.287 152.029C276.885 152.729 277.785 153.079 278.991 153.079C279.442 153.079 279.855 153.023 280.23 152.912L282.493 154.231L283.108 153.168H283.103ZM277.479 151.046C277.095 150.431 276.903 149.44 276.903 148.081C276.903 145.701 277.628 144.51 279.073 144.51C279.83 144.51 280.388 144.795 280.742 145.364C281.125 145.983 281.316 146.963 281.316 148.308C281.316 150.706 280.592 151.909 279.146 151.909C278.386 151.909 277.831 151.624 277.476 151.055L277.479 151.046ZM274.647 150.32C274.647 151.123 274.353 151.783 273.765 152.295C273.178 152.808 272.393 153.064 271.401 153.064C270.473 153.064 269.583 152.77 268.714 152.184L269.119 151.371C269.867 151.747 270.542 151.931 271.151 151.931C271.719 151.931 272.165 151.806 272.489 151.555C272.651 151.433 272.782 151.274 272.871 151.091C272.96 150.909 273.005 150.708 273.002 150.505C273.002 149.941 272.609 149.463 271.895 149.061C271.232 148.697 269.908 147.939 269.908 147.939C269.187 147.414 268.828 146.852 268.828 145.928C268.828 145.159 269.096 144.544 269.631 144.075C270.169 143.6 270.861 143.366 271.715 143.366C272.59 143.366 273.389 143.598 274.107 144.066L273.743 144.879C273.17 144.627 272.552 144.494 271.925 144.486C271.442 144.486 271.068 144.602 270.808 144.838C270.676 144.947 270.57 145.084 270.497 145.239C270.424 145.393 270.385 145.562 270.384 145.733C270.384 146.294 270.784 146.775 271.522 147.185C272.194 147.553 273.55 148.33 273.55 148.33C274.29 148.851 274.657 149.406 274.657 150.325L274.647 150.32ZM290.674 140.323C289.76 140.299 289.051 140.391 288.459 140.644C288.288 140.713 288.014 140.713 287.991 140.929C288.084 141.02 288.098 141.169 288.178 141.295C288.315 141.524 288.551 141.83 288.77 141.99C289.009 142.178 289.248 142.359 289.499 142.52C289.943 142.793 290.447 142.956 290.883 143.231C291.13 143.391 291.383 143.594 291.634 143.765C291.759 143.851 291.839 144.004 292 144.059V144.025C291.921 143.922 291.898 143.774 291.821 143.659C291.706 143.545 291.592 143.442 291.479 143.33C291.144 142.888 290.743 142.499 290.292 142.177C289.926 141.927 289.127 141.579 288.976 141.16L288.954 141.136C289.203 141.114 289.501 141.023 289.74 140.955C290.128 140.853 290.483 140.875 290.884 140.774C291.066 140.728 291.248 140.672 291.431 140.613V140.511C291.226 140.306 291.072 140.027 290.861 139.836C290.269 139.319 289.639 138.849 288.975 138.43C288.616 138.201 288.161 138.054 287.784 137.86C287.647 137.791 287.418 137.757 287.34 137.643C287.135 137.393 287.015 137.062 286.87 136.765C286.534 136.114 286.223 135.451 285.935 134.778C285.73 134.33 285.606 133.884 285.355 133.474C284.176 131.532 282.9 130.355 280.937 129.203C280.515 128.964 280.009 128.862 279.474 128.735C279.189 128.722 278.904 128.701 278.62 128.689C278.432 128.609 278.251 128.392 278.091 128.288C277.442 127.878 275.761 126.989 275.282 128.165C274.975 128.906 275.738 129.637 276.003 130.013C276.2 130.275 276.447 130.574 276.584 130.867C276.664 131.066 276.687 131.269 276.767 131.476C276.948 131.978 277.12 132.538 277.36 133.008C277.484 133.247 277.621 133.498 277.782 133.713C277.874 133.838 278.031 133.896 278.067 134.101C277.906 134.334 277.896 134.672 277.804 134.955C277.394 136.249 277.554 137.848 278.135 138.799C278.318 139.083 278.754 139.711 279.336 139.471C279.849 139.266 279.736 138.616 279.883 138.044C279.917 137.907 279.895 137.817 279.965 137.725V137.75C280.125 138.071 280.286 138.377 280.433 138.698C280.785 139.259 281.4 139.84 281.914 140.227C282.187 140.432 282.404 140.788 282.746 140.914V140.88H282.72C282.647 140.781 282.549 140.733 282.457 140.653C282.241 140.441 282.041 140.212 281.859 139.969C281.378 139.312 280.951 138.616 280.583 137.889C280.395 137.53 280.238 137.144 280.088 136.79C280.019 136.654 280.019 136.449 279.905 136.38C279.734 136.63 279.483 136.847 279.358 137.154C279.141 137.646 279.119 138.251 279.037 138.879C278.991 138.891 279.013 138.879 278.991 138.903C278.625 138.815 278.501 138.435 278.364 138.118C278.022 137.306 277.966 136.003 278.262 135.068C278.342 134.829 278.684 134.074 278.547 133.845C278.475 133.628 278.25 133.503 278.125 133.327C277.964 133.098 277.827 132.854 277.715 132.598C277.442 131.959 277.305 131.252 277.008 130.613C276.871 130.317 276.632 130.008 276.437 129.736C276.22 129.429 275.981 129.212 275.808 128.848C275.752 128.723 275.672 128.517 275.762 128.38C275.786 128.288 275.834 128.252 275.923 128.226C276.073 128.103 276.495 128.264 276.644 128.332C277.066 128.503 277.421 128.664 277.775 128.903C277.935 129.016 278.108 129.233 278.313 129.289H278.552C278.918 129.369 279.329 129.313 279.671 129.414C280.277 129.608 280.824 129.892 281.314 130.199C282.825 131.164 284.054 132.512 284.876 134.105C285.013 134.368 285.073 134.609 285.197 134.882C285.437 135.446 285.732 136.015 285.975 136.56C286.214 137.098 286.444 137.646 286.788 138.092C286.959 138.331 287.645 138.456 287.953 138.581C288.18 138.683 288.534 138.777 288.739 138.902C289.132 139.141 289.514 139.414 289.883 139.677C290.071 139.807 290.64 140.092 290.674 140.323Z" fill="black" fill-opacity="0.08"/>
<g clip-path="url(#clip7_29_114)">
<path d="M882.508 222C882.221 222 881.935 222 881.648 222.002C881.407 222.004 881.165 222.005 880.924 222.012C880.792 222.015 880.661 222.021 880.529 222.027C880.133 222.042 879.739 222.084 879.348 222.15C878.827 222.242 878.323 222.409 877.85 222.645C876.901 223.128 876.129 223.899 875.645 224.848C875.4 225.328 875.245 225.82 875.15 226.348C875.057 226.868 875.028 227.398 875.014 227.924C875.008 228.165 875.004 228.407 875.002 228.648C875 228.935 875 229.221 875 229.508V238.492C875 238.779 875 239.067 875.002 239.354C875.004 239.594 875.007 239.835 875.014 240.076C875.028 240.602 875.057 241.133 875.15 241.652C875.245 242.18 875.4 242.672 875.645 243.152C876.128 244.101 876.9 244.873 877.85 245.355C878.33 245.599 878.82 245.755 879.348 245.85C879.868 245.943 880.398 245.974 880.924 245.988C881.165 245.995 881.407 245.997 881.648 245.998C881.935 246 882.221 246 882.508 246H891.492C891.779 246 892.065 246 892.352 245.998C892.593 245.997 892.835 245.995 893.076 245.988C893.605 245.982 894.132 245.936 894.654 245.85C895.175 245.76 895.68 245.594 896.152 245.355C897.101 244.872 897.872 244.101 898.355 243.152C898.6 242.672 898.755 242.18 898.85 241.652C898.943 241.132 898.974 240.602 898.988 240.076C898.995 239.835 898.997 239.595 898.998 239.354C899 239.067 899 238.779 899 238.492V229.508C899 229.221 899 228.935 898.998 228.648C898.997 228.407 898.994 228.165 898.988 227.924C898.982 227.396 898.936 226.869 898.85 226.348C898.76 225.826 898.594 225.321 898.355 224.848C897.872 223.899 897.101 223.128 896.152 222.645C895.68 222.407 895.175 222.24 894.654 222.15C894.132 222.064 893.605 222.018 893.076 222.012C892.835 222.006 892.595 222.003 892.354 222.002C892.067 222 891.779 222 891.492 222H882.508ZM888.543 225.41C892.657 227.88 895.088 232.572 894.092 236.541C894.068 236.634 894.042 236.722 894.016 236.813L894.018 236.814C896.08 239.352 895.518 242.072 895.254 241.559C894.182 239.473 892.188 239.991 891.166 240.516C891.074 240.571 890.98 240.624 890.885 240.674L890.865 240.686L890.863 240.688C888.748 241.811 885.906 241.893 883.051 240.666C880.726 239.659 878.76 237.972 877.411 235.828C878.06 236.308 878.761 236.73 879.508 237.08C882.527 238.494 885.559 238.391 887.705 237.078C884.651 234.73 882.101 231.67 880.146 229.191C879.774 228.757 879.438 228.295 879.141 227.807C881.481 229.949 885.179 232.637 886.506 233.383C883.69 230.408 881.208 226.743 881.324 226.86C885.76 231.33 889.852 233.856 889.852 233.856C890.006 233.941 890.122 234.01 890.212 234.069C890.297 233.854 890.372 233.632 890.436 233.401C891.144 230.813 890.346 227.853 888.543 225.409V225.41Z" fill="black" fill-opacity="0.08"/>
</g>
<g clip-path="url(#clip8_29_114)">
<path d="M1347.55 61.0913C1344.5 47.6063 1337.27 43.1741 1336.5 41.4801C1335.82 40.5279 1335.22 39.1746 1334.72 38.0001C1334.64 39.1963 1334.59 39.6555 1333.46 40.8614C1331.71 42.2292 1322.73 49.7596 1322 65.0764C1321.32 79.3637 1332.32 87.8776 1333.82 88.9627L1333.99 89.0836C1334.3 91.3836 1334.56 93.6896 1334.78 96.0001L1335.95 96.0001C1336.22 93.5061 1336.63 91.0314 1337.18 88.5809C1338.19 87.8656 1338.64 87.462 1339.23 86.9061C1342.05 84.3017 1344.28 81.1354 1345.8 77.612C1347.31 74.0886 1348.07 70.2865 1348.03 66.4515C1348.05 64.4843 1347.78 62.435 1347.55 61.0913ZM1334.65 80.8959C1334.65 80.8959 1334.65 60.8593 1335.32 60.8617C1335.83 60.8617 1336.5 86.708 1336.5 86.708C1335.58 86.5992 1334.65 82.4546 1334.65 80.8959Z" fill="black" fill-opacity="0.08"/>
</g>
<defs>
<clipPath id="clip0_29_114">
<rect width="50" height="50" fill="white" transform="translate(15 173)"/>
</clipPath>
<clipPath id="clip1_29_114">
<rect width="47" height="47" fill="white" transform="translate(370 3.00006)"/>
</clipPath>
<clipPath id="clip2_29_114">
<rect width="36" height="36" fill="white" transform="translate(480 146)"/>
</clipPath>
<clipPath id="clip3_29_114">
<rect width="53" height="53" fill="white" transform="translate(341 386)"/>
</clipPath>
<clipPath id="clip4_29_114">
<rect width="15" height="15" fill="white" transform="translate(183 428)"/>
</clipPath>
<clipPath id="clip5_29_114">
<rect width="57" height="57" fill="white" transform="translate(589 415)"/>
</clipPath>
<clipPath id="clip6_29_114">
<rect width="30" height="30" fill="white" transform="translate(673 86.0001)"/>
</clipPath>
<clipPath id="clip7_29_114">
<rect width="24" height="24" fill="white" transform="translate(875 222)"/>
</clipPath>
<clipPath id="clip8_29_114">
<rect width="58" height="58" fill="white" transform="translate(1306 38.0001)"/>
</clipPath>
</defs>
</svg>
